<svg class="icon" viewBox="0 0 1024 1024" xmlns="http://www.w3.org/2000/svg" width="200" height="200"><path d="M767.943 990.322zm-709.29 0zM997.66 2.276zM510.01 1021.724c-249.287 0-451.357-202.069-451.357-451.356 0-188.644 115.826-350.322 280.121-417.678v.114c4.893-1.707 10.127-2.617 15.588-2.617 25.714 0 46.763 20.935 46.763 46.649 0 20.252-12.971 37.66-31.176 44.032-128 54.5-217.884 181.475-217.884 329.5 0 197.746 160.2 357.945 357.945 357.945S867.954 768 867.954 570.368c0-147.911-89.77-275-217.885-329.5-18.204-6.372-31.061-23.78-31.061-44.032 0-25.828 20.821-46.65 46.649-46.65 5.461 0 10.581.91 15.587 2.618v-.114c164.41 67.47 280.121 229.034 280.121 417.678 0 249.287-202.069 451.356-451.356 451.356zm0-482.417c-25.714 0-46.649-20.935-46.649-46.763V72.249c0-25.714 20.935-46.649 46.649-46.649 25.827 0 46.649 20.935 46.649 46.649V492.43c0 25.942-20.822 46.877-46.65 46.877z"/></svg>
