<svg class="icon" viewBox="0 0 1024 1024" xmlns="http://www.w3.org/2000/svg" width="200" height="200"><path d="M1016.32 573.273L573.273 196.21c-32.993-32.993-94.266-32.993-127.259 0L2.967 573.273V422.448l447.76-395.915c32.993-32.993 84.84-32.993 117.832 0l447.76 395.915v150.825zm-127.258 0v377.061c0 51.846-51.846 61.273-103.692 61.273H634.545V884.348c0-23.566-37.706-61.272-61.272-61.272H446.014c-23.566 0-61.272 37.706-61.272 61.272v127.259H233.917c-51.846 0-103.692-14.14-103.692-61.273V573.273l377.062-315.79 381.775 315.79z"/></svg>
