<svg class="icon" viewBox="0 0 1024 1024" xmlns="http://www.w3.org/2000/svg" width="200" height="200"><path d="M968.325 999.272c0 8.981-7.282 16.142-16.142 16.142H71.817c-8.981 0-16.142-7.282-16.142-16.142 0-1.335.122-2.548.486-3.762 8.252-190.54 133.256-350.86 305.47-410.935l141.63 141.63c4.855 4.855 12.744 4.855 17.598 0l141.631-141.63C834.583 644.65 959.708 804.97 967.96 995.51c.243 1.214.365 2.427.365 3.762zM512 559.09c-151.097 0-273.552-122.455-273.552-273.552S360.903 12.106 512 12.106s273.552 122.455 273.552 273.43S663.097 559.09 512 559.09z"/></svg>
