<svg class="icon" viewBox="0 0 1024 1024" xmlns="http://www.w3.org/2000/svg" width="200" height="200"><path d="M915.342 516.21c0 53.703 42.553 97.394 95.687 99.442-13.767 66.787-40.732 128.796-78.051 183.296-39.14-34.816-98.987-33.451-136.42 3.982-36.978 36.978-38.798 95.8-5.347 134.94-54.614 35.726-116.509 61.213-182.955 73.842-4.551-50.745-47.104-90.567-99.1-90.567-51.428 0-93.753 39.026-98.987 89.088-65.081-13.426-125.61-39.253-178.973-74.866 30.607-39.026 27.876-95.687-8.078-131.64-36.067-36.068-92.842-38.685-131.868-7.851C55.068 742.059 28.786 680.96 15.246 615.31c50.062-5.234 89.088-47.559 89.088-98.986 0-51.997-39.822-94.55-90.567-99.1 12.516-66.447 38.116-128.342 73.728-182.842 39.14 34.02 98.418 32.427 135.623-4.778 37.66-37.66 38.798-98.077 3.414-137.216 54.385-37.206 116.394-64.171 183.182-77.938 2.048 53.248 45.738 95.687 99.442 95.687 54.158 0 98.304-43.35 99.441-97.28 68.38 12.97 131.869 39.708 187.506 77.027-38.457 38.912-38.343 101.604.341 140.402 38.685 38.685 101.149 38.798 140.06.57 36.865 55.295 63.148 118.214 76.004 185.912-53.816 1.138-97.166 45.17-97.166 99.442zM510.521 290.247c-118.898 0-215.154 96.37-215.154 215.154 0 118.898 96.37 215.154 215.154 215.154 118.898 0 215.154-96.37 215.154-215.154 0-118.784-96.256-215.154-215.154-215.154z"/></svg>
